<svg xmlns="http://www.w3.org/2000/svg" viewBox="0 0 64 64">
  <rect width="64" height="64" rx="18" fill="#0f1a29" />
  <path
    d="M17 18.5C17 16.57 18.57 15 20.5 15H30C39.94 15 48 23.06 48 33C48 42.94 39.94 51 30 51H20.5C18.57 51 17 49.43 17 47.5V18.5Z"
    fill="#fdfefe"
  />
  <path
    d="M26 22H30.5C36.3 22 41 26.7 41 32.5C41 38.3 36.3 43 30.5 43H26V22Z"
    fill="#0a7d72"
  />
  <path
    d="M26 27.5H30.5C33.26 27.5 35.5 29.74 35.5 32.5C35.5 35.26 33.26 37.5 30.5 37.5H26V27.5Z"
    fill="#eebc4b"
  />
</svg>
